<?xml version="1.0" encoding="UTF-8" standalone="no"?><!DOCTYPE svg PUBLIC "-//W3C//DTD SVG 1.1//EN" "http://www.w3.org/Graphics/SVG/1.1/DTD/svg11.dtd"><svg width="100%" height="100%" viewBox="0 0 1200 1200" version="1.1" xmlns="http://www.w3.org/2000/svg" xmlns:xlink="http://www.w3.org/1999/xlink" xml:space="preserve" xmlns:serif="http://www.serif.com/" style="fill-rule:evenodd;clip-rule:evenodd;stroke-linejoin:round;stroke-miterlimit:2;"><path d="M160,100l64.553,0l267.949,1000l-124.295,0l-259.992,-970.304c10.423,-17.761 29.721,-29.696 51.785,-29.696Zm134.633,0l124.295,0l267.949,1000l-124.295,0l-267.949,-1000Zm194.375,0l550.993,0c33.115,0 60,26.885 60,60l0,880c0,33.115 -26.885,60 -60,60l-283.043,0l-267.949,-1000Zm-190.88,1000l-138.127,0c-33.115,0 -60,-26.885 -60,-60l0,-679.42l198.127,739.42Z" style="fill:#8797a9;"/></svg>